<?xml version="1.0" encoding="UTF-8" standalone="no"?>
<svg
   xmlns:dc="http://purl.org/dc/elements/1.1/"
   xmlns:cc="http://creativecommons.org/ns#"
   xmlns:rdf="http://www.w3.org/1999/02/22-rdf-syntax-ns#"
   xmlns:svg="http://www.w3.org/2000/svg"
   xmlns="http://www.w3.org/2000/svg"
   xmlns:sodipodi="http://sodipodi.sourceforge.net/DTD/sodipodi-0.dtd"
   xmlns:inkscape="http://www.inkscape.org/namespaces/inkscape"
   width="248.46875"
   height="54.90625"
   version="1.1"
   id="svg14"
   sodipodi:docname="logo-tikzplotlib.svg"
   inkscape:version="0.92.4 (5da689c313, 2019-01-14)"
   style="fill-opacity:0.8;stroke:#777777"
   inkscape:export-filename="/tmp/mpl.png"
   inkscape:export-xdpi="132.69"
   inkscape:export-ydpi="132.69">
  <metadata
     id="metadata20">
    <rdf:RDF>
      <cc:Work
         rdf:about="">
        <dc:format>image/svg+xml</dc:format>
        <dc:type
           rdf:resource="http://purl.org/dc/dcmitype/StillImage" />
        <dc:title></dc:title>
      </cc:Work>
    </rdf:RDF>
  </metadata>
  <defs
     id="defs18" />
  <sodipodi:namedview
     pagecolor="#ffffff"
     bordercolor="#666666"
     borderopacity="1"
     objecttolerance="10"
     gridtolerance="10"
     guidetolerance="10"
     inkscape:pageopacity="0"
     inkscape:pageshadow="2"
     inkscape:window-width="1920"
     inkscape:window-height="1009"
     id="namedview16"
     showgrid="false"
     inkscape:zoom="7.375"
     inkscape:cx="-0.51512013"
     inkscape:cy="19.836442"
     inkscape:window-x="0"
     inkscape:window-y="34"
     inkscape:window-maximized="1"
     inkscape:current-layer="flowRoot22"
     fit-margin-top="0"
     fit-margin-left="0"
     fit-margin-right="0"
     fit-margin-bottom="0" />
  <g
     aria-label="tikzplotlib"
     transform="translate(-149.42969,18.310547)"
     style="font-style:normal;font-variant:normal;font-weight:normal;font-stretch:normal;font-size:12.75px;line-height:0%;font-family:'Helvetica LT Std';-inkscape-font-specification:'Helvetica LT Std';letter-spacing:0px;word-spacing:0px;fill:#000000;fill-opacity:1;stroke:none;stroke-width:1px;stroke-linecap:butt;stroke-linejoin:miter;stroke-opacity:1"
     id="flowRoot22">
    <path
       d="m 174.02344,24.439453 q -0.0625,0.25 -0.21875,0.4375 -0.15625,0.15625 -0.46875,0.28125 -0.3125,0.125 -0.84375,0.1875 -0.5,0.0625 -1.25,0.0625 -0.75,0 -1.25,-0.0625 -0.5,-0.0625 -0.78125,-0.1875 -0.25,-0.125 -0.34375,-0.28125 -0.0937,-0.1875 -0.0312,-0.4375 l 4.9375,-24.65624988 H 159.24219 L 156.08594,15.470703 q -0.125,0.65625 -0.21875,1.46875 -0.0937,0.8125 -0.0937,1.34375 0,1.59375 0.65625,2.34375 0.6875,0.71875 2.1875,0.71875 0.84375,0 1.46875,-0.125 0.625,-0.15625 1.0625,-0.3125 0.46875,-0.15625 0.8125,-0.28125 0.34375,-0.15625 0.59375,-0.15625 0.25,0 0.375,0.1875 0.15625,0.15625 0.15625,0.625 0,0.40625 -0.0937,0.90625 -0.0625,0.46875 -0.1875,0.9375 -0.125,0.46875 -0.3125,0.84375 -0.1875,0.375 -0.40625,0.59375 -0.25,0.21875 -0.75,0.4375 -0.5,0.21875 -1.15625,0.375 -0.65625,0.1875 -1.40625,0.28125 -0.71875,0.09375 -1.4375,0.09375 -1.75,0 -3.03125,-0.375 -1.28125,-0.375 -2.15625,-1.15625 -0.875,-0.8125 -1.3125,-2 -0.40625,-1.21875 -0.40625,-2.90625 0,-0.375 0.0312,-0.8125 0.0312,-0.46875 0.0937,-0.96875 0.0937,-0.5 0.15625,-1 0.0937,-0.5 0.1875,-0.9375 l 3.15625,-15.81249988 h -3.90625 q -0.34375,0 -0.53125,-0.1875 -0.1875,-0.21874999 -0.1875,-0.81250002 0,-0.4375 0.0937,-1 0.0937,-0.59375 0.28125,-1.09375 0.1875,-0.5 0.46875,-0.84375 0.3125,-0.34375 0.71875,-0.34375 h 3.9375 l 1.34375,-6.6875001 q 0.0312,-0.21875 0.1875,-0.40625 0.1875,-0.1875 0.5,-0.3125 0.3125,-0.15625 0.8125,-0.21875 0.53125,-0.0625 1.28125,-0.0625 0.75,0 1.25,0.0625 0.5,0.0625 0.75,0.21875 0.28125,0.125 0.34375,0.3125 0.0937,0.1875 0.0312,0.40625 l -1.34375,6.6875001 h 18.09375 q 0.9375,0 1.1875,0.4375 0.28125,0.40625 0.0937,1.21875 z m 8.0625,-37.59375 q -0.15625,0.875 -0.4375,1.46875 -0.25,0.59375 -0.6875,0.96875 -0.4375,0.34375 -1.09375,0.5 -0.625,0.15625 -1.5625,0.15625 -0.9375,0 -1.53125,-0.15625 -0.5625,-0.15625 -0.84375,-0.5 -0.25,-0.375 -0.28125,-0.96875 -0.0312,-0.59375 0.125,-1.46875 0.15625,-0.875 0.40625,-1.4375 0.28125,-0.59375 0.71875,-0.96875 0.46875,-0.40625 1.09375,-0.53125 0.625,-0.15625 1.5625,-0.15625 0.9375,0 1.5,0.15625 0.59375,0.125 0.875,0.53125 0.28125,0.375 0.3125,0.96875 0.0312,0.5625 -0.15625,1.4375 z"
       style="font-style:italic;font-variant:normal;font-weight:normal;font-stretch:normal;font-size:64px;font-family:Calibri;-inkscape-font-specification:'Calibri Italic'"
       id="path819" />
    <path
       d="m 211.11719,-3.7792969 q 0,0.375 -0.28125,0.78125 -0.25,0.40625 -1.03125,1.125 l -12.21875,10.46875 8.40625,14.1562499 q 0.3125,0.5625 0.4375,0.96875 0.125,0.375 0.125,0.59375 0,0.28125 -0.125,0.5 -0.125,0.1875 -0.46875,0.3125 -0.3125,0.125 -0.875,0.1875 -0.53125,0.09375 -1.34375,0.09375 -0.875,0 -1.375,-0.0625 -0.5,-0.03125 -0.8125,-0.15625 -0.3125,-0.125 -0.46875,-0.3125 -0.15625,-0.1875 -0.28125,-0.46875 l -9,-15.5624999 -3.09375,15.5937499 q -0.0625,0.25 -0.21875,0.4375 -0.15625,0.15625 -0.5,0.28125 -0.3125,0.125 -0.84375,0.1875 -0.5,0.0625 -1.25,0.0625 -0.75,0 -1.25,-0.0625 -0.46875,-0.0625 -0.75,-0.15625 -0.25,-0.125 -0.34375,-0.3125 -0.0937,-0.1875 -0.0312,-0.4375 l 8.34375,-41.75 q 0.0625,-0.25 0.1875,-0.4375 0.15625,-0.1875 0.46875,-0.3125 0.34375,-0.125 0.84375,-0.1875 0.53125,-0.0625 1.3125,-0.0625 0.75,0 1.21875,0.0625 0.5,0.0625 0.75,0.1875 0.28125,0.125 0.34375,0.3125 0.0625,0.1875 0.0312,0.4375 l -5.09375,25.4375001 13.03125,-11.78125 q 0.25,-0.28125 0.5625,-0.46875 0.3125,-0.21875 0.71875,-0.3125 0.40625,-0.125 0.9375,-0.15625 0.5625,-0.0625 1.3125,-0.0625 0.75,0 1.25,0.0625 0.53125,0.03125 0.8125,0.15625 0.3125,0.09375 0.4375,0.28125 0.125,0.15625 0.125,0.375 z"
       style="fill:#ff7f00;fill-opacity:1"
       id="path821" />
    <path
       d="m 235.24219,-3.4355469 q 0,0.15625 -0.0312,0.46875 -0.0312,0.28125 -0.0937,0.625 -0.0625,0.3125 -0.125,0.65625 -0.0625,0.3125 -0.125,0.53125 -0.1875,0.68750002 -0.59375,1.31250002 -0.375,0.59375 -1.0625,1.40624998 L 217.30469,20.876953 h 12.90625 q 0.375,0 0.5625,0.28125 0.1875,0.28125 0.1875,0.8125 0,0.25 -0.0312,0.59375 -0.0312,0.34375 -0.125,0.6875 -0.0937,0.34375 -0.21875,0.71875 -0.125,0.34375 -0.3125,0.625 -0.1875,0.28125 -0.40625,0.46875 -0.21875,0.15625 -0.5,0.15625 h -17.40625 q -0.59375,0 -0.875,-0.3125 -0.28125,-0.34375 -0.28125,-0.90625 0,-0.21875 0.0625,-0.5625 0.0625,-0.34375 0.125,-0.6875 0.0625,-0.375 0.125,-0.6875 0.0937,-0.3125 0.15625,-0.46875 0.0625,-0.25 0.15625,-0.4375 0.0937,-0.21875 0.28125,-0.46875 0.1875,-0.28125 0.46875,-0.65625 0.28125,-0.375 0.6875,-0.875 l 16,-19.31249987 h -11.75 q -0.40625,0 -0.625,-0.25000001 -0.1875,-0.28124999 -0.1875,-0.84375002 0,-0.28125 0.0312,-0.625 0.0625,-0.34375 0.125,-0.6875 0.0937,-0.375 0.21875,-0.71875 0.15625,-0.375 0.34375,-0.625 0.1875,-0.28125 0.40625,-0.4375 0.25,-0.15625 0.53125,-0.15625 h 16.21875 q 0.59375,0 0.8125,0.28125 0.25,0.28125 0.25,0.78125 z"
       style="font-style:italic;font-variant:normal;font-weight:normal;font-stretch:normal;font-size:64px;font-family:Calibri;-inkscape-font-specification:'Calibri Italic'"
       id="path823" />
    <path
       d="m 266.39844,5.0957031 q 0,1.8125 -0.34375,4.09375 -0.34375,2.2499999 -1.09375,4.5624999 -0.75,2.3125 -1.9375,4.5 -1.15625,2.15625 -2.8125,3.84375 -1.65625,1.6875 -3.84375,2.71875 -2.15625,1 -4.90625,1 -1.40625,0 -2.5625,-0.28125 -1.15625,-0.28125 -2.125,-0.78125 -0.96875,-0.5 -1.78125,-1.15625 -0.8125,-0.6875 -1.5,-1.5 l -2.65625,13.5 q -0.0625,0.25 -0.21875,0.4375 -0.125,0.1875 -0.4375,0.3125 -0.3125,0.125 -0.84375,0.1875 -0.5,0.0625 -1.28125,0.0625 -0.71875,0 -1.21875,-0.0625 -0.46875,-0.0625 -0.75,-0.1875 -0.28125,-0.125 -0.34375,-0.3125 -0.0937,-0.1875 -0.0625,-0.4375 l 7.90625,-39.3124999 q 0.0625,-0.5 0.625,-0.71875 0.5625,-0.21875 1.875,-0.21875 0.65625,0 1.0625,0.0625 0.40625,0.03125 0.65625,0.15625 0.25,0.09375 0.3125,0.28125 0.0625,0.1875 0.0312,0.4375 l -1.0625,5.34375 q 0.4375,-1.03124998 1.46875,-2.18749997 1.0625,-1.18750003 2.5,-2.18750003 1.46875,-1.03125 3.25,-1.6875 1.78125,-0.65625 3.625,-0.65625 2.375,0 3.96875,0.8125 1.625,0.8125 2.625,2.1875 1,1.34375003 1.4375,3.21875 0.4375,1.84375 0.4375,3.96875 z m -5.40625,0.34375 q 0,-1.34375 -0.25,-2.46875 -0.21875,-1.125 -0.75,-1.9375 -0.5,-0.81249997 -1.34375,-1.24999998 -0.8125,-0.43749999 -2.03125,-0.43749999 -1.6875,0 -3.4375,0.9375 -1.75,0.93749997 -3.25,2.62499997 -1.5,1.6875 -2.6875,4 -1.15625,2.28125 -1.6875,4.9999999 l -1.03125,5.15625 q 1.46875,2.1875 3.15625,3.28125 1.6875,1.0625 3.8125,1.0625 1.65625,0 3,-0.78125 1.375,-0.78125 2.40625,-2.09375 1.0625,-1.3125 1.8125,-2.96875 0.78125,-1.65625 1.28125,-3.4375 0.53125,-1.78125 0.75,-3.5312499 0.25,-1.75 0.25,-3.15625 z"
       style="font-style:italic;font-variant:normal;font-weight:normal;font-stretch:normal;font-size:64px;font-family:Calibri;-inkscape-font-specification:'Calibri Italic'"
       id="path825" />
    <path
       d="m 275.96094,24.439453 q -0.0625,0.25 -0.21875,0.4375 -0.15625,0.15625 -0.46875,0.28125 -0.3125,0.125 -0.84375,0.1875 -0.5,0.0625 -1.25,0.0625 -0.78125,0 -1.28125,-0.0625 -0.46875,-0.0625 -0.75,-0.1875 -0.25,-0.125 -0.34375,-0.28125 -0.0625,-0.1875 0,-0.4375 l 8.3125,-41.75 q 0.0625,-0.25 0.1875,-0.4375 0.15625,-0.1875 0.46875,-0.3125 0.34375,-0.125 0.84375,-0.1875 0.53125,-0.0625 1.3125,-0.0625 0.75,0 1.21875,0.0625 0.5,0.0625 0.75,0.1875 0.28125,0.125 0.34375,0.3125 0.0625,0.1875 0.0312,0.4375 z"
       style="font-style:italic;font-variant:normal;font-weight:normal;font-stretch:normal;font-size:64px;font-family:Calibri;-inkscape-font-specification:'Calibri Italic'"
       id="path827" />
    <path
       d="m 314.05469,5.6269531 q 0,2.3125 -0.4375,4.7187499 -0.4375,2.40625 -1.34375,4.65625 -0.875,2.21875 -2.25,4.1875 -1.375,1.96875 -3.25,3.4375 -1.84375,1.46875 -4.21875,2.34375 -2.34375,0.84375 -5.25,0.84375 -3,0 -5.15625,-0.71875 -2.125,-0.71875 -3.5,-2.09375 -1.375,-1.375 -2.03125,-3.375 -0.65625,-2 -0.65625,-4.53125 0,-2.3125 0.40625,-4.71875 0.4375,-2.4062499 1.34375,-4.6249999 0.90625,-2.21875 2.25,-4.1875 1.375,-1.99999998 3.21875,-3.46875 1.875,-1.46875 4.21875,-2.3125 2.375,-0.875 5.28125,-0.875 3,0 5.125,0.75 2.15625,0.71875 3.53125,2.09375 1.40625,1.37500002 2.0625,3.375 0.65625,2 0.65625,4.5 z m -5.4375,0.3125 q 0,-1.5625 -0.34375,-2.8125 -0.3125,-1.25 -1.09375,-2.09375 -0.75,-0.87499998 -2,-1.34374998 -1.21875,-0.46874999 -2.96875,-0.46874999 -1.875,0 -3.40625,0.6875 -1.53125,0.65624999 -2.75,1.81249997 -1.1875,1.125 -2.09375,2.65625 -0.875,1.53125 -1.46875,3.28125 -0.5625,1.71875 -0.84375,3.5624999 -0.28125,1.8125 -0.28125,3.5625 0,1.5625 0.34375,2.8125 0.34375,1.25 1.09375,2.125 0.78125,0.875 2,1.34375 1.21875,0.46875 2.96875,0.46875 1.90625,0 3.40625,-0.65625 1.53125,-0.6875 2.71875,-1.84375 1.21875,-1.15625 2.09375,-2.6875 0.90625,-1.53125 1.46875,-3.28125 0.59375,-1.75 0.875,-3.5624999 0.28125,-1.8125 0.28125,-3.5625 z"
       style="font-style:italic;font-variant:normal;font-weight:normal;font-stretch:normal;font-size:64px;font-family:Calibri;-inkscape-font-specification:'Calibri Italic'"
       id="path829" />
    <path
       d="m 338.55469,-3.3730469 q 0,0.28125 -0.0312,0.625 -0.0312,0.3125 -0.125,0.65625 -0.0937,0.34375 -0.25,0.6875 -0.15625,0.34375 -0.34375,0.62500003 -0.15625,0.25 -0.375,0.40624999 -0.21875,0.15625 -0.5,0.15625 h -7.1875 L 326.58594,15.470703 q -0.125,0.65625 -0.21875,1.46875 -0.0937,0.8125 -0.0937,1.34375 0,1.59375 0.65625,2.34375 0.6875,0.71875 2.1875,0.71875 0.84375,0 1.46875,-0.125 0.625,-0.15625 1.0625,-0.3125 0.46875,-0.15625 0.8125,-0.28125 0.34375,-0.15625 0.59375,-0.15625 0.25,0 0.375,0.1875 0.15625,0.15625 0.15625,0.625 0,0.40625 -0.0937,0.90625 -0.0625,0.46875 -0.1875,0.9375 -0.125,0.46875 -0.3125,0.84375 -0.1875,0.375 -0.40625,0.59375 -0.25,0.21875 -0.75,0.4375 -0.5,0.21875 -1.15625,0.375 -0.65625,0.1875 -1.40625,0.28125 -0.71875,0.09375 -1.4375,0.09375 -1.75,0 -3.03125,-0.375 -1.28125,-0.375 -2.15625,-1.15625 -0.875,-0.8125 -1.3125,-2 -0.40625,-1.21875 -0.40625,-2.90625 0,-0.375 0.0312,-0.8125 0.0312,-0.46875 0.0937,-0.96875 0.0937,-0.5 0.15625,-1 0.0937,-0.5 0.1875,-0.9375 l 3.15625,-15.81249988 h -3.90625 q -0.34375,0 -0.53125,-0.1875 -0.1875,-0.21874999 -0.1875,-0.81250002 0,-0.4375 0.0937,-1 0.0937,-0.59375 0.28125,-1.09375 0.1875,-0.5 0.46875,-0.84375 0.3125,-0.34375 0.71875,-0.34375 h 3.9375 l 1.34375,-6.6875001 q 0.0312,-0.21875 0.1875,-0.40625 0.1875,-0.1875 0.5,-0.3125 0.3125,-0.15625 0.8125,-0.21875 0.53125,-0.0625 1.28125,-0.0625 0.75,0 1.21875,0.0625 0.5,0.0625 0.75,0.21875 0.28125,0.125 0.34375,0.3125 0.0937,0.1875 0.0625,0.40625 l -1.34375,6.6875001 h 7.1875 q 0.46875,0 0.625,0.34375 0.15625,0.34375 0.15625,0.78125 z"
       style="font-style:italic;font-variant:normal;font-weight:normal;font-stretch:normal;font-size:64px;font-family:Calibri;-inkscape-font-specification:'Calibri Italic'"
       id="path831" />
    <path
       d="m 345.08594,24.439453 q -0.0625,0.25 -0.21875,0.4375 -0.15625,0.15625 -0.46875,0.28125 -0.3125,0.125 -0.84375,0.1875 -0.5,0.0625 -1.25,0.0625 -0.78125,0 -1.28125,-0.0625 -0.46875,-0.0625 -0.75,-0.1875 -0.25,-0.125 -0.34375,-0.28125 -0.0625,-0.1875 0,-0.4375 l 8.3125,-41.75 q 0.0625,-0.25 0.1875,-0.4375 0.15625,-0.1875 0.46875,-0.3125 0.34375,-0.125 0.84375,-0.1875 0.53125,-0.0625 1.3125,-0.0625 0.75,0 1.21875,0.0625 0.5,0.0625 0.75,0.1875 0.28125,0.125 0.34375,0.3125 0.0625,0.1875 0.0312,0.4375 z"
       style="font-style:italic;font-variant:normal;font-weight:normal;font-stretch:normal;font-size:64px;font-family:Calibri;-inkscape-font-specification:'Calibri Italic'"
       id="path833" />
    <path
       d="m 367.92969,-13.154297 q -0.15625,0.875 -0.4375,1.46875 -0.25,0.59375 -0.6875,0.96875 -0.4375,0.34375 -1.09375,0.5 -0.65625,0.15625 -1.59375,0.15625 -0.90625,0 -1.5,-0.15625 -0.59375,-0.15625 -0.875,-0.5 -0.28125,-0.375 -0.3125,-0.96875 -0.0312,-0.59375 0.125,-1.46875 0.1875,-0.875 0.46875,-1.4375 0.28125,-0.59375 0.6875,-0.96875 0.4375,-0.40625 1.09375,-0.53125 0.65625,-0.15625 1.59375,-0.15625 0.90625,0 1.46875,0.15625 0.59375,0.125 0.875,0.53125 0.3125,0.375 0.34375,0.96875 0.0312,0.5625 -0.15625,1.4375 z m -8.09375,37.59375 q -0.0625,0.25 -0.21875,0.4375 -0.15625,0.15625 -0.46875,0.28125 -0.3125,0.125 -0.84375,0.1875 -0.5,0.0625 -1.25,0.0625 -0.78125,0 -1.28125,-0.0625 -0.46875,-0.0625 -0.75,-0.1875 -0.25,-0.125 -0.34375,-0.28125 -0.0625,-0.1875 0,-0.4375 l 5.59375,-28.1249999 q 0.0312,-0.21875 0.1875,-0.40625 0.15625,-0.1875 0.46875,-0.3125 0.3125,-0.125 0.8125,-0.1875 0.53125,-0.0625 1.3125,-0.0625 0.75,0 1.21875,0.0625 0.5,0.0625 0.75,0.1875 0.28125,0.125 0.34375,0.3125 0.0937,0.1875 0.0625,0.40625 z"
       style="font-style:italic;font-variant:normal;font-weight:normal;font-stretch:normal;font-size:64px;font-family:Calibri;-inkscape-font-specification:'Calibri Italic'"
       id="path835" />
    <path
       d="m 397.89844,5.0957031 q 0,1.875 -0.34375,4.15625 -0.34375,2.2499999 -1.125,4.5624999 -0.75,2.28125 -1.90625,4.46875 -1.15625,2.15625 -2.84375,3.84375 -1.65625,1.65625 -3.84375,2.6875 -2.15625,1 -4.875,1 -2.8125,0 -4.8125,-1.0625 -2,-1.0625 -3.5625,-3.0625 l -0.5625,2.75 q -0.0625,0.53125 -0.6875,0.75 -0.59375,0.21875 -1.84375,0.21875 -1.3125,0 -1.75,-0.25 -0.4375,-0.25 -0.3125,-0.71875 l 8.3125,-41.75 q 0.0625,-0.25 0.1875,-0.4375 0.15625,-0.1875 0.46875,-0.3125 0.34375,-0.125 0.84375,-0.1875 0.53125,-0.0625 1.3125,-0.0625 0.75,0 1.21875,0.0625 0.46875,0.0625 0.75,0.1875 0.28125,0.125 0.34375,0.3125 0.0625,0.1875 0.0312,0.4375 l -2.5,12.5625001 q -0.15625,0.8125 -0.375,1.6875 -0.21875,0.875 -0.46875,1.75 -0.21875,0.84375002 -0.46875,1.62500003 -0.21875,0.74999997 -0.40625,1.31249997 0.5,-1.09374998 1.5625,-2.24999997 1.09375,-1.18750003 2.53125,-2.15625003 1.46875,-1 3.1875,-1.65625 1.71875,-0.65625 3.46875,-0.65625 1.875,0 3.21875,0.5 1.34375,0.5 2.28125,1.34375 0.9375,0.8125 1.5,1.875 0.59375,1.06250002 0.90625,2.18750003 0.3125,1.12499997 0.4375,2.24999997 0.125,1.09375 0.125,2.03125 z m -5.40625,0.4375 q 0,-0.84375 -0.15625,-1.9375 -0.15625,-1.09375 -0.625,-2.03125 -0.4375,-0.93749998 -1.3125,-1.56249997 -0.84375,-0.65625 -2.28125,-0.65625 -1.6875,0 -3.4375,0.96875 -1.75,0.96874997 -3.25,2.68749997 -1.5,1.6875 -2.6875,4 -1.15625,2.28125 -1.6875,4.9999999 l -1.03125,5.1875 q 1.46875,2.15625 3.15625,3.1875 1.6875,1.03125 3.8125,1.03125 1.625,0 2.9375,-0.75 1.3125,-0.75 2.375,-2 1.0625,-1.25 1.84375,-2.84375 0.78125,-1.625 1.28125,-3.375 0.53125,-1.78125 0.78125,-3.5624999 0.28125,-1.78125 0.28125,-3.34375 z"
       style="font-style:italic;font-variant:normal;font-weight:normal;font-stretch:normal;font-size:64px;font-family:Calibri;-inkscape-font-specification:'Calibri Italic'"
       id="path837" />
  </g>
</svg>
