<svg xmlns="http://www.w3.org/2000/svg" width="248.469" height="54.906" fill-opacity=".8" stroke="#777"><g aria-label="tikzplotlib" style="line-height:0%;-inkscape-font-specification:'Helvetica LT Std'" font-weight="400" font-size="12.75" font-family="Helvetica LT Std" letter-spacing="0" word-spacing="0" fill-opacity="1" stroke="none"><path d="M24.594 42.75q-.063.25-.219.438-.156.156-.469.28-.312.126-.843.188-.5.063-1.25.063t-1.25-.063q-.5-.062-.782-.187-.25-.125-.343-.282-.094-.187-.032-.437l4.938-24.656H9.813L6.656 33.78q-.125.657-.218 1.469-.094.813-.094 1.344 0 1.593.656 2.343.688.72 2.188.72.843 0 1.468-.126.625-.156 1.063-.312.469-.157.812-.282.344-.156.594-.156t.375.188q.156.156.156.625 0 .406-.093.906-.063.469-.188.938-.125.468-.312.843-.188.375-.407.594-.25.219-.75.438-.5.218-1.156.374-.656.188-1.406.282-.719.093-1.438.093-1.75 0-3.03-.374-1.282-.376-2.157-1.157-.875-.812-1.313-2Q1 39.313 1 37.625q0-.375.031-.813.032-.468.094-.968.094-.5.156-1 .094-.5.188-.938l3.156-15.812H.719q-.344 0-.531-.188Q0 17.688 0 17.094q0-.438.094-1Q.187 15.5.375 15q.187-.5.469-.844.312-.343.718-.343H5.5l1.344-6.688q.03-.219.187-.406.188-.188.5-.313.313-.156.813-.219.531-.062 1.281-.062.75 0 1.25.062.5.063.75.22.281.124.344.312.093.187.03.406l-1.343 6.688H28.75q.937 0 1.187.437.282.406.094 1.219zm8.062-37.594q-.156.875-.437 1.469-.25.594-.688.969-.437.343-1.093.5-.625.156-1.563.156t-1.531-.156q-.563-.156-.844-.5-.25-.375-.281-.969-.031-.594.125-1.469.156-.875.406-1.437.281-.594.719-.969.468-.406 1.093-.531.625-.156 1.563-.156t1.5.156q.594.125.875.531.281.375.313.969.03.562-.157 1.437z" style="-inkscape-font-specification:'Calibri Italic'" font-style="italic" font-size="64" font-family="Calibri" fill="#666"/><path d="M61.688 14.531q0 .375-.282.782-.25.406-1.031 1.125L48.156 26.906l8.407 14.157q.312.562.437.968.125.375.125.594 0 .281-.125.5-.125.188-.469.313-.312.124-.875.187-.531.094-1.343.094-.876 0-1.376-.063-.5-.031-.812-.156-.313-.125-.469-.313-.156-.187-.281-.468l-9-15.563-3.094 15.594q-.062.25-.218.438-.157.156-.5.28-.313.126-.844.188-.5.063-1.25.063t-1.25-.063q-.469-.062-.75-.156-.25-.125-.344-.313-.094-.187-.031-.437L42.438 1q.062-.25.187-.438.156-.187.469-.312.344-.125.844-.188Q44.468 0 45.25 0 46 0 46.47.063q.5.062.75.187.281.125.344.313.062.187.03.437L42.5 26.438l13.031-11.782q.25-.281.563-.468.312-.22.718-.313.407-.125.938-.156.563-.063 1.313-.063t1.25.063q.53.031.812.156.313.094.438.281.124.157.124.375z" fill="#ff7f00"/><path d="M85.813 14.875q0 .156-.032.469-.03.281-.093.625-.063.312-.125.656-.063.313-.125.531-.188.688-.594 1.313-.375.594-1.063 1.406L67.875 39.188h12.906q.375 0 .563.28.187.282.187.813 0 .25-.03.594-.032.344-.126.688-.094.343-.219.718-.125.344-.312.625-.188.282-.406.469-.22.156-.5.156H62.53q-.593 0-.875-.312-.28-.344-.28-.907 0-.218.062-.562l.125-.688q.062-.374.125-.687.093-.313.156-.469.062-.25.156-.437.094-.219.281-.469.188-.281.47-.656.28-.375.687-.875l16-19.313h-11.75q-.407 0-.625-.25-.188-.281-.188-.843 0-.282.031-.625l.125-.688q.094-.375.219-.719.156-.375.344-.625.187-.281.406-.437.25-.156.531-.156H84.75q.594 0 .813.28.25.282.25.782zM116.969 23.406q0 1.813-.344 4.094-.344 2.25-1.094 4.563-.75 2.312-1.937 4.5-1.156 2.156-2.813 3.843-1.656 1.688-3.844 2.719-2.156 1-4.906 1-1.406 0-2.562-.281-1.156-.282-2.125-.782-.969-.5-1.781-1.156-.813-.687-1.5-1.5l-2.657 13.5q-.062.25-.219.438-.124.187-.437.312t-.844.188q-.5.062-1.281.062-.719 0-1.219-.062-.469-.063-.75-.188t-.344-.312q-.093-.188-.062-.438l7.906-39.312q.063-.5.625-.719.563-.219 1.875-.219.656 0 1.063.063.406.031.656.156.25.094.313.281.062.188.03.438l-1.062 5.344q.438-1.032 1.469-2.188 1.062-1.187 2.5-2.187 1.469-1.032 3.25-1.688 1.781-.656 3.625-.656 2.375 0 3.969.812 1.625.813 2.625 2.188 1 1.344 1.437 3.219.438 1.843.438 3.968zm-5.406.344q0-1.344-.25-2.469-.22-1.125-.75-1.937-.5-.813-1.344-1.25-.813-.438-2.031-.438-1.688 0-3.438.938-1.75.937-3.25 2.625-1.5 1.687-2.688 4-1.156 2.281-1.687 5l-1.031 5.156q1.469 2.188 3.156 3.281 1.688 1.063 3.813 1.063 1.656 0 3-.782 1.374-.78 2.406-2.093 1.062-1.313 1.812-2.969.781-1.656 1.281-3.438.532-1.78.75-3.53.25-1.75.25-3.157zM126.531 42.75q-.062.25-.219.438-.156.156-.468.28-.313.126-.844.188-.5.063-1.25.063-.781 0-1.281-.063-.469-.062-.75-.187-.25-.125-.344-.282-.063-.187 0-.437L129.688 1q.062-.25.187-.438.156-.187.469-.312.344-.125.844-.188Q131.718 0 132.5 0q.75 0 1.219.063.5.062.75.187.281.125.344.313.062.187.03.437zM164.625 23.938q0 2.312-.438 4.718-.437 2.407-1.343 4.657-.875 2.218-2.25 4.187-1.375 1.969-3.25 3.438-1.844 1.468-4.219 2.343-2.344.844-5.25.844-3 0-5.156-.719-2.125-.718-3.5-2.093-1.375-1.376-2.031-3.376-.657-2-.657-4.53 0-2.313.406-4.72.438-2.406 1.344-4.624.906-2.22 2.25-4.188 1.375-2 3.219-3.469 1.875-1.468 4.219-2.312 2.375-.875 5.281-.875 3 0 5.125.75 2.156.719 3.531 2.094 1.406 1.375 2.063 3.375.656 2 .656 4.5zm-5.438.312q0-1.562-.343-2.812-.313-1.25-1.094-2.094-.75-.875-2-1.344-1.219-.469-2.969-.469-1.875 0-3.406.688-1.531.656-2.75 1.812-1.188 1.125-2.094 2.657-.875 1.53-1.469 3.28-.562 1.72-.843 3.563-.281 1.813-.281 3.563 0 1.562.343 2.812.344 1.25 1.094 2.125.781.875 2 1.344 1.219.469 2.969.469 1.906 0 3.406-.657 1.531-.687 2.719-1.843 1.219-1.157 2.094-2.688.906-1.531 1.468-3.281.594-1.75.875-3.562.281-1.813.281-3.563zM189.125 14.938q0 .28-.031.625-.031.312-.125.656-.094.344-.25.687-.156.344-.344.625-.156.25-.375.407-.219.156-.5.156h-7.187l-3.157 15.687q-.125.657-.219 1.469-.093.813-.093 1.344 0 1.593.656 2.343.688.72 2.188.72.843 0 1.468-.126.625-.156 1.063-.312.469-.157.812-.282.344-.156.594-.156t.375.188q.156.156.156.625 0 .406-.093.906-.063.469-.188.938-.125.468-.312.843-.188.375-.407.594-.25.219-.75.438-.5.218-1.156.374-.656.188-1.406.282-.719.093-1.438.093-1.75 0-3.03-.374-1.282-.376-2.157-1.157-.875-.812-1.313-2-.406-1.218-.406-2.906 0-.375.031-.813.031-.468.094-.968.094-.5.156-1 .094-.5.188-.938l3.156-15.812h-3.906q-.344 0-.531-.188-.188-.218-.188-.812 0-.438.094-1 .093-.594.281-1.094.187-.5.469-.844.312-.343.718-.343H176l1.344-6.688q.03-.219.187-.406.188-.188.5-.313.313-.156.813-.219.531-.062 1.281-.062.75 0 1.219.062.5.063.75.22.281.124.343.312.094.187.063.406l-1.344 6.688h7.188q.468 0 .625.343.156.344.156.782zM195.656 42.75q-.062.25-.219.438-.156.156-.468.28-.313.126-.844.188-.5.063-1.25.063-.781 0-1.281-.063-.469-.062-.75-.187-.25-.125-.344-.282-.063-.187 0-.437L198.813 1q.062-.25.187-.438.156-.187.469-.312.344-.125.844-.188.53-.062 1.312-.062.75 0 1.219.063.5.062.75.187.281.125.344.313.062.187.03.437zM218.5 5.156q-.156.875-.438 1.469-.25.594-.687.969-.438.343-1.094.5-.656.156-1.594.156-.906 0-1.5-.156-.593-.156-.875-.5-.28-.375-.312-.969-.031-.594.125-1.469.188-.875.469-1.437.281-.594.687-.969.438-.406 1.094-.531.656-.156 1.594-.156.906 0 1.469.156.593.125.875.531.312.375.343.969.031.562-.156 1.437zm-8.094 37.594q-.062.25-.219.438-.156.156-.468.28-.313.126-.844.188-.5.063-1.25.063-.781 0-1.281-.063-.469-.062-.75-.187-.25-.125-.344-.282-.063-.187 0-.437l5.594-28.125q.031-.219.187-.406.156-.188.469-.313.313-.125.813-.187.53-.063 1.312-.063.75 0 1.219.063.5.062.75.187.281.125.344.313.093.187.062.406zM248.469 23.406q0 1.875-.344 4.157-.344 2.25-1.125 4.562-.75 2.281-1.906 4.469-1.156 2.156-2.844 3.843-1.656 1.657-3.844 2.688-2.156 1-4.875 1-2.812 0-4.812-1.063-2-1.062-3.563-3.062l-.562 2.75q-.063.531-.688.75-.594.219-1.844.219-1.312 0-1.75-.25-.437-.25-.312-.719L228.313 1q.062-.25.187-.438.156-.187.469-.312.344-.125.844-.188.53-.062 1.312-.062.75 0 1.219.063.469.062.75.187t.344.313q.062.187.03.437l-2.5 12.563q-.156.812-.374 1.687-.219.875-.469 1.75-.219.844-.469 1.625-.219.75-.406 1.313.5-1.094 1.562-2.25 1.094-1.188 2.532-2.157 1.468-1 3.187-1.656 1.719-.656 3.469-.656 1.875 0 3.219.5 1.343.5 2.281 1.344.937.812 1.5 1.875.594 1.062.906 2.187.313 1.125.438 2.25.125 1.094.125 2.031zm-5.406.438q0-.844-.157-1.938-.156-1.093-.625-2.031-.437-.937-1.312-1.562-.844-.657-2.281-.657-1.688 0-3.438.969-1.75.969-3.25 2.688-1.5 1.687-2.688 4-1.156 2.28-1.687 5l-1.031 5.187q1.469 2.156 3.156 3.188 1.688 1.03 3.813 1.03 1.625 0 2.937-.75 1.313-.75 2.375-2 1.063-1.25 1.844-2.843Q241.5 32.5 242 30.75q.531-1.781.781-3.562.281-1.782.281-3.344z" style="-inkscape-font-specification:'Calibri Italic'" font-style="italic" font-size="64" font-family="Calibri" fill="#666"/></g></svg>